<?xml version="1.0" encoding="UTF-8"?>
<svg id="Layer_1" data-name="Layer 1" xmlns="http://www.w3.org/2000/svg" viewBox="0 0 1688.5 257.56">
  <defs>
    <style>
      .cls-1 {
        stroke: #ffff;
        stroke-miterlimit: 10;
      }
    </style>
  </defs>
  <path class="cls-1" d="m143.39,128.68c-4.92,0-9.84-.02-14.76.02-.71,0-.95-.22-1.11-.9-1.77-7.61-5.26-14.25-10.8-19.68-10.17-10.17-24.97-13.86-38.85-12.24-30.49,3.37-46.99,33.41-45.24,62.79,1.06,39.81,32.84,66.81,70.89,53.25,12.87-4.84,23.01-16.35,25.34-30.33.21-1.09.19-1.1,1.27-1.1,9.84,0,19.68,0,29.51,0,.45,0,.82-.13.7.68-4.18,34.52-35.46,59.81-68.43,61.92C37.24,248.25-3.14,203.72.76,148.62c1.92-42.69,33.56-78.59,75.9-80.91,18.77-1.24,38.12,2.06,53.88,13.08,16.01,10.89,25.45,28.02,28.48,47.25.15.65-.13.64-.58.63-5.02,0-10.04,0-15.05,0Z"/>
  <path class="cls-1" d="m830.26,65.31c.01,3.25-.43,6.35-1.47,9.32-3.62,10.31-10.67,17.07-21.24,20.12-2.65.76-5.38,1.02-8.13,1.02-21.35,0-42.69,0-64.04,0-.51,0-1.02,0-1.53,0,.01-.02.02-.05.03-.07,2.33.49,4.73.77,6.98,1.5,12.03,3.87,19.73,11.89,22.97,24.07.71,2.65.91,5.38.91,8.11,0,24.12,0,48.24.02,72.36,0,4.9.2,9.79,1.08,14.63.6,3.31,1.59,6.48,3.5,9.3,2.54,3.75,6.2,5.86,10.48,7,1.92.51,3.9.82,5.91,1.24-.17.13-.38.29-.59.44-4.79,3.32-10.07,5.21-15.9,5.75-6.4.59-12.64.17-18.66-2.2-6.81-2.68-12.26-6.94-15.75-13.46-2.58-4.82-3.45-10.03-3.45-15.43,0-37.34,0-74.69,0-112.03v-1.2h-67.62c.12-1.49.15-2.92.37-4.31,1.47-9.19,6.12-16.38,13.96-21.46,4.15-2.69,8.73-4.21,13.68-4.57,1.05-.08,2.1-.13,3.15-.13,44.75,0,89.49,0,134.24,0,.33,0,.66,0,1.09,0Z"/>
  <path class="cls-1" d="m1344.9,117.21c-.67,0-1.11,0-1.55,0-9,0-18,0-27,0-1.47,0-1.63.34-2.03-1.59-2.07-10.09-8.25-17.04-17.94-21.18-7.64-3.26-15.7-4.11-23.97-3.63-4.59.27-9.06,1.03-13.35,2.66-4.2,1.59-7.92,3.86-10.5,7.5-5.66,7.95-3.96,18.47,3.9,24.46,3.85,2.93,8.28,4.77,12.88,6.3,7.6,2.53,15.47,4.13,23.28,5.91,9.02,2.06,18.02,4.19,26.63,7.54,6.99,2.72,13.52,6.16,19.07,11.14,6.96,6.26,11.13,13.97,12.82,22.93,1.71,9.12,1.56,18.17-1.56,27.03-4.18,11.87-12.32,20.63-23.44,26.94-8.33,4.73-17.4,7.42-26.94,8.75-6.18.86-12.38,1.07-18.6.75-14.6-.76-28.24-4.4-40.15-12.85-13.1-9.29-20.98-21.79-24.22-37.04-.54-2.54-.72-5.15-1.1-7.72-.11-.79.19-1.02,1.01-1.02,9.38.02,18.75.03,28.13,0,1.09,0,1.2.54,1.31,1.33.99,7.04,3.29,13.59,7.86,19.28,5.36,6.66,12.52,10.61,21,12.29,10.36,2.05,20.65,1.73,30.61-1.92,8.52-3.12,14.23-8.84,16.11-17.6,1.18-5.51,1.06-10.95-1.67-16.1-2.38-4.49-6.24-7.55-10.71-9.98-6.11-3.33-12.75-5.35-19.48-7.13-9.16-2.42-18.38-4.66-27.52-7.18-7.71-2.12-15.15-4.93-22-9.02-10.01-5.97-16.72-14.22-19.09-25.46-4.09-19.37,3.75-36.66,21.36-47.08,7.99-4.72,16.7-7.49,25.96-8.69,12.88-1.66,25.63-1,38.16,2.4,12.83,3.48,23.67,9.92,31.64,20.38,5.81,7.63,9.12,16.25,10.8,25.49.12.64.18,1.28.29,2.11Z"/>
  <path class="cls-1" d="m1612.26,243.2c-.59,0-1.03,0-1.47,0-8.94,0-17.88,0-26.81,0-1.65,0-1.65.33-1.65-1.63,0-51.18,0-102.37,0-153.55,0-6.19,0-12.38,0-18.56,0-1.32,0-1.33,1.37-1.33,9.11,0,18.22.01,27.33-.02.98,0,1.27.27,1.26,1.24-.04,9.32-.02,18.63-.02,27.95,0,.39,0,.78,0,1.17.06.02.13.04.19.05.12-.18.27-.34.37-.53,7.7-14.37,19.55-23.98,35.01-29.27,11.28-3.86,22.81-4.5,34.45-1.62,1.74.43,3.41,1.16,5.09,1.81.29.11.62.56.62.86.03,9.15.01,18.29,0,27.44,0,.06-.04.13-.09.33-.37-.13-.74-.25-1.11-.39-8.64-3.27-17.59-4.65-26.8-3.78-10.98,1.04-20.05,5.97-27.49,13.89-7.19,7.66-11.7,16.79-14.84,26.65-2.84,8.93-4.41,18.1-4.97,27.42-.29,4.93-.41,9.88-.42,14.82-.04,21.79-.02,43.58-.02,65.37v1.68Z"/>
  <path class="cls-1" d="m1372.56,155.12c-.06-12.05,1.56-22.91,5.33-33.41,4.41-12.28,11.21-23.07,20.63-32.12,10.82-10.4,23.61-17.27,38.13-20.96,4.37-1.11,8.8-1.98,13.3-2.31,4.16-.31,8.33-.63,12.49-.61,12.05.07,23.76,2.06,34.98,6.6,11.74,4.76,22.02,11.69,30.53,21.11,9.86,10.91,16.37,23.59,19.73,37.9,1,4.28,1.76,8.61,2.05,13,.23,3.55.49,7.11.47,10.66-.06,11.84-1.96,23.37-6.34,34.42-5.01,12.64-12.46,23.6-22.74,32.55-10.98,9.55-23.64,15.83-37.82,19.05-4.64,1.06-9.34,1.82-14.1,2.04-3.94.18-7.89.37-11.83.24-13.71-.46-26.79-3.55-38.98-9.94-20.71-10.86-34.39-27.62-41.57-49.79-1.68-5.18-2.76-10.5-3.45-15.91-.56-4.46-.87-8.93-.82-12.51Zm87.41-61.25c-3.53-.04-7.67.29-11.77,1.05-13.94,2.6-25.26,9.09-33.88,19.45-8.28,9.94-12.22,21.39-13.31,33.73-.38,4.28-.39,8.57-.05,12.86.3,3.82.85,7.6,1.8,11.32,2.63,10.33,7.43,19.67,15.38,27.48,9.96,9.79,22.35,15.04,36.83,16.22,4.05.33,8.11.27,12.16-.1,4.13-.38,8.19-1.08,12.13-2.27,8.12-2.46,15.09-6.23,20.95-11.26,1.43-1.23,6.12-5.41,10.45-12.11,8.45-13.08,9.67-26.71,9.73-34.09.09-3.42-.03-8.28-1.08-13.99-.51-2.81-1.44-7.62-3.82-13.35-1.2-2.88-2.4-5.1-3.18-6.48-2.65-4.64-5.51-8.14-7.79-10.59-5.74-5.88-11.35-9.34-15.23-11.35-12.46-6.44-23.91-6.48-29.3-6.54Z"/>
  <path class="cls-1" d="m612.93,97.09c14.19,1.3,26.67,12.72,29.15,27.03.38,2.19.59,4.43.59,6.65.04,24.66,0,49.32.06,73.97.01,5.26.27,10.52,1.52,15.67.98,4.02,2.64,7.66,5.86,10.42,2.77,2.37,6.06,3.58,9.56,4.32,1.02.22,2.07.34,3.1.51.29.05.58.12.99.2-.23.21-.34.35-.47.44-4.67,3.32-9.82,5.36-15.54,5.91-3.32.32-6.65.54-9.96.11-10.75-1.4-19.58-5.96-25.05-15.78-2.03-3.64-3.03-7.61-3.32-11.76-.12-1.71-.15-3.44-.16-5.15,0-37.12,0-74.23,0-111.35,0-1.41.14-1.26-1.29-1.26-21.6,0-43.19,0-64.79,0-1.25,0-1.29,0-1.22-1.27.65-10.33,5.17-18.51,13.67-24.38,5.05-3.48,10.71-5.13,16.86-5.13,23.08.01,46.16,0,69.24,0,1.13,0,1.16,0,1.12,1.13-.24,7-2.62,13.2-7.07,18.57-4.86,5.85-11.07,9.43-18.57,10.7-1.51.25-3.05.32-4.29.44Z"/>
  <path class="cls-1" d="m995.05,158.81h-129.31c.15,1.79.25,3.5.44,5.2.62,5.43,1.68,10.78,3.44,15.96,2.5,7.36,6.12,14.06,11.53,19.69,5.91,6.14,13.06,10.15,21.22,12.36,6.18,1.68,12.47,2.18,18.85,1.88,5.54-.26,10.95-1.16,16.17-3.1,5.59-2.08,10.52-5.19,14.65-9.55,4.4-4.63,7.23-10.14,8.96-16.28.05-.17.09-.34.15-.51.02-.07.06-.14.09-.22h31.8c-.55,3.67-1.39,7.23-2.56,10.7-5.77,17.09-16.89,29.5-32.7,37.73-7.74,4.03-15.96,6.59-24.56,7.93-7.28,1.14-14.59,1.36-21.91.86-15.37-1.06-29.63-5.57-42.44-14.35-13.43-9.2-22.9-21.63-29.05-36.7-2.87-7.04-4.73-14.37-5.76-21.91-.93-6.77-1.21-13.56-.87-20.38.82-16.41,5.17-31.72,14.2-45.5,11.9-18.14,28.37-29.76,49.37-34.75,7.9-1.88,15.94-2.42,24.06-2.07,8.16.35,16.17,1.54,23.89,4.25,22.75,7.98,38.12,23.52,46.27,46.35,2.35,6.57,3.74,13.35,4.41,20.3.69,7.09.53,14.16-.2,21.22-.03.27-.09.54-.15.89Zm-32.81-25.07c0-.33.02-.58,0-.83-.23-2.52-.31-5.06-.75-7.54-2.1-11.9-8.47-20.79-18.89-26.7-6.23-3.53-13-5.33-20.09-5.96-6.64-.59-13.23-.28-19.73,1.26-10.52,2.49-19.29,7.79-25.79,16.63-4.6,6.25-7.42,13.31-9.17,20.84-.17.75-.32,1.5-.49,2.3h94.92Z"/>
  <path d="m372.11,125.83c.93-6.58,2.59-12.8,5.19-18.72,9.96-22.69,27.16-36.52,51.45-41.09,18.15-3.42,35.94-1.73,52.72,6.33,18.69,8.98,29.88,23.92,33.3,44.46.71,4.29.98,8.69.99,13.04.08,35.97.04,71.95.04,107.92v2h-29.5v-27.48c-.11-.03-.22-.05-.33-.08-.43.8-.85,1.62-1.31,2.41-4.73,8.12-11.57,14.06-19.59,18.71-12.66,7.34-26.31,10.19-40.88,9.03-9.63-.77-18.95-2.65-27.64-6.98-14.18-7.06-23.21-18.2-25.52-34.04-1.95-13.31-.13-26.07,7.86-37.38,4.93-6.98,11.64-11.86,19.18-15.66,9.42-4.75,19.45-7.75,29.78-9.47,9.96-1.66,20.02-2.79,30.05-3.97,8.91-1.05,17.85-1.86,26.78-2.74,1.15-.11,1.57-.52,1.57-1.75,0-5.57.01-11.12-1.74-16.51-3.15-9.68-9.53-16.49-18.85-20.23-13.63-5.47-27.52-5.67-41.19-.22-11.08,4.41-17.71,13.05-21.06,24.32-.66,2.23-1.08,4.53-1.54,6.81-.1.52-.23.9-.52,1.14-.4.33-.93.3-1.08.29-1.07-.05-12.45-.09-28.18-.14Zm114.12,28.91c-.49.03-.68.03-.88.06-7.93.92-15.86,1.78-23.77,2.79-8.8,1.12-17.6,2.2-26.35,3.64-7.25,1.19-14.3,3.23-20.84,6.75-12.08,6.51-15.68,17.38-13.48,29.66,1.43,7.95,6.72,13.11,13.97,16.24,8.62,3.72,17.66,4.29,26.85,3.02,14.18-1.97,25.57-8.75,34-20.33,7.41-10.19,10.56-21.75,10.51-34.26-.01-2.47,0-4.94,0-7.55Z"/>
  <path class="cls-1" d="m215.77,242.6c-.8,0-1.38,0-1.96,0-8.39,0-16.78,0-25.16,0q-2.09,0-2.09-2.09c0-57.42,0-114.84,0-172.25,0-21.84,0-43.67,0-65.51,0-.73.06-1.45.1-2.25h29v99.01c.44-.46.64-.62.78-.83,10.35-15.81,25.08-25.29,43.3-29.37,15-3.36,29.92-2.66,44.31,3.01,19.18,7.55,30.81,21.69,35.28,41.76,1.21,5.45,1.58,10.98,1.57,16.55-.01,36.67,0,73.35,0,110.02v1.85h-29.46c-.04-.73-.11-1.46-.11-2.18,0-34.39-.02-68.78.01-103.17,0-6.64-.62-13.18-2.87-19.46-4.74-13.2-14.14-21.09-27.85-23.58-12.03-2.18-23.62-.63-34.37,5.52-9.3,5.32-15.89,13.18-20.71,22.61-4.72,9.24-7.51,19.09-8.58,29.37-.7,6.7-1.1,13.45-1.13,20.18-.14,22.88-.05,45.76-.05,68.63,0,.64,0,1.28,0,2.18Z"/>
  <path class="cls-1" d="m1052.55,242.19c-.8,0-1.38,0-1.96,0-8.39,0-16.78,0-25.16,0-1.05,0-1.57,0-1.83-.26-.57-.57-.29-1.7-.26-1.83.38-1.93.31-71.35,0-173.46,9.72.09,19.45.18,29.17.27-.02,10.73-.04,21.47-.06,32.2.44-.46.64-.62.78-.83,10.35-15.81,25.08-25.29,43.3-29.37,15-3.36,29.92-2.66,44.31,3.01,19.18,7.55,30.81,21.69,35.28,41.76,1.21,5.45,1.58,10.98,1.57,16.55-.01,36.67,0,73.35,0,110.02v1.85h-29.46c-.04-.73-.11-1.46-.11-2.18,0-34.39-.02-68.78.01-103.17,0-6.64-.62-13.18-2.87-19.46-4.74-13.2-14.14-21.09-27.85-23.58-12.03-2.18-23.62-.63-34.37,5.52-9.3,5.32-15.89,13.18-20.71,22.61-4.72,9.24-7.51,19.09-8.58,29.37-1.02,9.82-1.2,17.24-1.13,20.18.38,16.41.36,39.21-.05,70.81Z"/>
</svg>