<?xml version="1.0" encoding="UTF-8" standalone="no"?>
<svg
   xmlns:dc="http://purl.org/dc/elements/1.1/"
   xmlns:cc="http://creativecommons.org/ns#"
   xmlns:rdf="http://www.w3.org/1999/02/22-rdf-syntax-ns#"
   xmlns:svg="http://www.w3.org/2000/svg"
   xmlns="http://www.w3.org/2000/svg"
   xmlns:sodipodi="http://sodipodi.sourceforge.net/DTD/sodipodi-0.dtd"
   xmlns:inkscape="http://www.inkscape.org/namespaces/inkscape"
   inkscape:version="1.0 (4035a4fb49, 2020-05-01)"
   sodipodi:docname="chat_FILL0_wght300_GRAD0_opsz48.svg"
   id="svg4"
   version="1.1"
   width="100%"
   height="100%"
   viewBox="0 0 50 50">
  <metadata
     id="metadata10">
    <rdf:RDF>
      <cc:Work
         rdf:about="">
        <dc:format>image/svg+xml</dc:format>
        <dc:type
           rdf:resource="http://purl.org/dc/dcmitype/StillImage" />
        <dc:title></dc:title>
      </cc:Work>
    </rdf:RDF>
  </metadata>
  <defs
     id="defs8" />
  <sodipodi:namedview
     inkscape:current-layer="svg4"
     inkscape:window-maximized="1"
     inkscape:window-y="-8"
     inkscape:window-x="-8"
     inkscape:cy="24"
     inkscape:cx="24"
     inkscape:zoom="21.375"
     showgrid="false"
     id="namedview6"
     inkscape:window-height="1417"
     inkscape:window-width="2560"
     inkscape:pageshadow="2"
     inkscape:pageopacity="0"
     guidetolerance="10"
     gridtolerance="10"
     objecttolerance="10"
     borderopacity="1"
     bordercolor="#666666"
     pagecolor="#ffffff" />
  <path
     style="fill:#ffffff"
     id="path2"
     d="M12.5 27.55h14.75v-2.3H12.5Zm0-6.4h23V18.9h-23Zm0-6.35h23v-2.25h-23ZM5 42.1V7.9q0-1.15.85-2.025T7.9 5h32.2q1.15 0 2.025.875T43 7.9v24.2q0 1.15-.875 2.025T40.1 35h-28Zm2.25-5.5 3.85-3.85h29q.3 0 .475-.175t.175-.475V7.9q0-.3-.175-.475T40.1 7.25H7.9q-.3 0-.475.175T7.25 7.9Zm0-28.7V7.25 36.6Z" />
</svg>
