<?xml version="1.0" encoding="UTF-8" standalone="no"?>
<svg
   id="svg4" version="1.1" height="100%" width="100%" viewBox="0 0 50 50">
  <path
     style="fill:url(#linearGradient849);fill-opacity:1"
     id="path2"
     d="M 7,38.5 V 9.5 L 41.4,24 Z M 9.25,35 23.290453,29.127567 35.55,24 9.25,12.9 v 8.4 L 20.2,24 9.25,26.6 Z m 0,0 V 12.9 26.6 Z" />
  <path
     id="path851"
     d="m 9.2631579,30.791784 c 0,-3.927218 0.00469,-4.166922 0.081871,-4.188767 0.045029,-0.01274 2.5081871,-0.598159 5.4736841,-1.300921 2.965498,-0.702762 5.391813,-1.288935 5.391813,-1.302606 0,-0.01367 -1.268421,-0.337295 -2.818713,-0.719165 -1.550293,-0.38187 -4.01345,-0.989012 -5.473684,-1.349206 L 9.2631579,21.276222 v -4.163584 c 0,-3.945398 0.00429,-4.162034 0.081871,-4.134004 0.3401609,0.122902 26.0701761,11.000262 26.0701761,11.021163 0,0.01981 -25.5819326,10.741764 -26.0701761,10.926589 -0.077592,0.02937 -0.081871,-0.186751 -0.081871,-4.134602 z"
     style="fill:#ffffff;fill-opacity:1;stroke-width:1.13386;stroke-linecap:round;stroke-linejoin:round;paint-order:markers fill stroke" />
</svg>
